<svg width="1145" height="25" viewBox="0 0 1145 25" fill="none" xmlns="http://www.w3.org/2000/svg">
<path d="M1005.66 16.108C1005.05 16.108 1004.48 16 1003.95 15.784C1003.42 15.56 1002.96 15.252 1002.57 14.86C1002.17 14.468 1001.87 14.008 1001.64 13.48C1001.43 12.944 1001.32 12.372 1001.32 11.764C1001.32 11.148 1001.43 10.58 1001.64 10.06C1001.87 9.532 1002.17 9.072 1002.57 8.68C1002.96 8.288 1003.42 7.984 1003.95 7.768C1004.47 7.544 1005.05 7.432 1005.66 7.432C1006.28 7.432 1006.85 7.544 1007.38 7.768C1007.91 7.984 1008.36 8.288 1008.75 8.68C1009.14 9.072 1009.44 9.532 1009.66 10.06C1009.88 10.58 1009.99 11.148 1009.99 11.764C1009.99 12.372 1009.88 12.944 1009.66 13.48C1009.44 14.008 1009.14 14.468 1008.75 14.86C1008.35 15.252 1007.89 15.56 1007.37 15.784C1006.85 16 1006.28 16.108 1005.66 16.108ZM1005.66 15.58C1006.2 15.58 1006.69 15.484 1007.15 15.292C1007.61 15.1 1008.01 14.832 1008.35 14.488C1008.69 14.136 1008.96 13.732 1009.15 13.276C1009.35 12.812 1009.44 12.308 1009.44 11.764C1009.44 11.22 1009.35 10.72 1009.15 10.264C1008.96 9.8 1008.69 9.396 1008.35 9.052C1008.01 8.708 1007.61 8.44 1007.15 8.248C1006.69 8.056 1006.2 7.96 1005.66 7.96C1005.12 7.96 1004.61 8.056 1004.15 8.248C1003.69 8.44 1003.29 8.708 1002.95 9.052C1002.61 9.396 1002.35 9.8 1002.16 10.264C1001.97 10.72 1001.87 11.22 1001.87 11.764C1001.87 12.308 1001.97 12.812 1002.16 13.276C1002.35 13.732 1002.61 14.136 1002.95 14.488C1003.29 14.832 1003.7 15.1 1004.16 15.292C1004.63 15.484 1005.13 15.58 1005.66 15.58ZM1003.93 14.296V9.232H1005.99C1006.53 9.232 1006.95 9.364 1007.23 9.628C1007.53 9.884 1007.68 10.24 1007.68 10.696C1007.68 11.16 1007.53 11.516 1007.23 11.764C1006.95 12.004 1006.54 12.124 1006.01 12.124L1006.15 12.004C1006.4 12.004 1006.61 12.06 1006.77 12.172C1006.93 12.276 1007.07 12.472 1007.16 12.76L1007.74 14.296H1006.91L1006.33 12.736C1006.26 12.536 1006.15 12.404 1006 12.34C1005.85 12.268 1005.68 12.232 1005.47 12.232H1004.57L1004.73 12.112V14.296H1003.93ZM1004.73 11.584H1005.89C1006.23 11.584 1006.48 11.516 1006.65 11.38C1006.81 11.244 1006.9 11.028 1006.9 10.732C1006.9 10.436 1006.81 10.22 1006.65 10.084C1006.49 9.948 1006.23 9.88 1005.89 9.88H1004.73V11.584ZM1014.68 16V7.54H1017.53C1018.45 7.54 1019.23 7.704 1019.86 8.032C1020.5 8.352 1020.99 8.828 1021.31 9.46C1021.65 10.084 1021.82 10.852 1021.82 11.764C1021.82 12.676 1021.65 13.448 1021.31 14.08C1020.99 14.712 1020.5 15.192 1019.86 15.52C1019.23 15.84 1018.45 16 1017.53 16H1014.68ZM1015.66 15.16H1017.46C1018.57 15.16 1019.4 14.876 1019.95 14.308C1020.5 13.74 1020.77 12.892 1020.77 11.764C1020.77 10.636 1020.5 9.792 1019.95 9.232C1019.39 8.664 1018.57 8.38 1017.46 8.38H1015.66V15.16ZM1026.08 16.108C1025.46 16.108 1024.93 15.988 1024.48 15.748C1024.04 15.5 1023.7 15.152 1023.45 14.704C1023.21 14.256 1023.09 13.72 1023.09 13.096C1023.09 12.488 1023.21 11.96 1023.45 11.512C1023.69 11.056 1024.02 10.7 1024.44 10.444C1024.86 10.188 1025.35 10.06 1025.9 10.06C1026.43 10.06 1026.88 10.176 1027.26 10.408C1027.63 10.64 1027.92 10.968 1028.12 11.392C1028.33 11.816 1028.43 12.324 1028.43 12.916V13.288H1023.84V12.652H1027.78L1027.59 12.808C1027.59 12.168 1027.45 11.672 1027.16 11.32C1026.88 10.96 1026.47 10.78 1025.92 10.78C1025.52 10.78 1025.17 10.876 1024.88 11.068C1024.6 11.252 1024.39 11.512 1024.24 11.848C1024.1 12.176 1024.03 12.56 1024.03 13V13.072C1024.03 13.56 1024.1 13.972 1024.26 14.308C1024.42 14.644 1024.65 14.9 1024.96 15.076C1025.28 15.244 1025.65 15.328 1026.08 15.328C1026.42 15.328 1026.76 15.276 1027.08 15.172C1027.4 15.06 1027.71 14.88 1028 14.632L1028.34 15.316C1028.07 15.556 1027.74 15.748 1027.33 15.892C1026.92 16.036 1026.5 16.108 1026.08 16.108ZM1031.81 16.108C1031.5 16.108 1031.21 16.076 1030.92 16.012C1030.64 15.956 1030.37 15.876 1030.13 15.772C1029.89 15.66 1029.68 15.528 1029.5 15.376L1029.81 14.692C1030.01 14.844 1030.21 14.972 1030.44 15.076C1030.66 15.172 1030.89 15.244 1031.12 15.292C1031.35 15.34 1031.59 15.364 1031.83 15.364C1032.29 15.364 1032.63 15.28 1032.86 15.112C1033.09 14.944 1033.21 14.716 1033.21 14.428C1033.21 14.204 1033.13 14.028 1032.98 13.9C1032.83 13.764 1032.59 13.66 1032.26 13.588L1031.17 13.348C1030.67 13.244 1030.29 13.064 1030.04 12.808C1029.8 12.552 1029.68 12.22 1029.68 11.812C1029.68 11.452 1029.77 11.144 1029.96 10.888C1030.15 10.624 1030.42 10.42 1030.76 10.276C1031.11 10.132 1031.51 10.06 1031.96 10.06C1032.23 10.06 1032.49 10.088 1032.74 10.144C1032.99 10.2 1033.22 10.284 1033.44 10.396C1033.66 10.5 1033.85 10.632 1034.01 10.792L1033.69 11.476C1033.54 11.332 1033.37 11.212 1033.17 11.116C1032.98 11.012 1032.78 10.936 1032.57 10.888C1032.37 10.832 1032.17 10.804 1031.96 10.804C1031.51 10.804 1031.17 10.892 1030.94 11.068C1030.71 11.244 1030.59 11.476 1030.59 11.764C1030.59 11.988 1030.67 12.172 1030.81 12.316C1030.95 12.46 1031.18 12.564 1031.48 12.628L1032.57 12.856C1033.09 12.968 1033.48 13.148 1033.74 13.396C1034 13.636 1034.13 13.964 1034.13 14.38C1034.13 14.732 1034.04 15.04 1033.85 15.304C1033.65 15.56 1033.38 15.76 1033.03 15.904C1032.69 16.04 1032.28 16.108 1031.81 16.108ZM1038.24 16.108C1037.63 16.108 1037.1 15.988 1036.65 15.748C1036.21 15.5 1035.86 15.152 1035.62 14.704C1035.38 14.256 1035.26 13.72 1035.26 13.096C1035.26 12.488 1035.38 11.96 1035.62 11.512C1035.86 11.056 1036.18 10.7 1036.6 10.444C1037.02 10.188 1037.51 10.06 1038.06 10.06C1038.59 10.06 1039.04 10.176 1039.42 10.408C1039.8 10.64 1040.08 10.968 1040.28 11.392C1040.49 11.816 1040.6 12.324 1040.6 12.916V13.288H1036V12.652H1039.95L1039.76 12.808C1039.76 12.168 1039.61 11.672 1039.32 11.32C1039.04 10.96 1038.63 10.78 1038.09 10.78C1037.68 10.78 1037.33 10.876 1037.04 11.068C1036.76 11.252 1036.55 11.512 1036.41 11.848C1036.26 12.176 1036.19 12.56 1036.19 13V13.072C1036.19 13.56 1036.27 13.972 1036.42 14.308C1036.58 14.644 1036.82 14.9 1037.13 15.076C1037.44 15.244 1037.81 15.328 1038.24 15.328C1038.59 15.328 1038.92 15.276 1039.24 15.172C1039.57 15.06 1039.88 14.88 1040.16 14.632L1040.5 15.316C1040.24 15.556 1039.9 15.748 1039.49 15.892C1039.08 16.036 1038.67 16.108 1038.24 16.108ZM1042 16V10.168H1042.95V11.464H1042.82C1042.99 11 1043.26 10.652 1043.63 10.42C1044.02 10.18 1044.46 10.06 1044.95 10.06C1045.42 10.06 1045.8 10.144 1046.11 10.312C1046.42 10.472 1046.65 10.724 1046.8 11.068C1046.95 11.412 1047.03 11.844 1047.03 12.364V16H1046.06V12.424C1046.06 12.064 1046.01 11.768 1045.91 11.536C1045.83 11.304 1045.68 11.132 1045.48 11.02C1045.29 10.908 1045.04 10.852 1044.73 10.852C1044.37 10.852 1044.07 10.928 1043.8 11.08C1043.54 11.232 1043.33 11.444 1043.19 11.716C1043.05 11.988 1042.97 12.308 1042.97 12.676V16H1042ZM1050.48 16L1047.97 10.168H1049.03L1051.12 15.28H1050.79L1052.92 10.168H1053.91L1051.39 16H1050.48ZM1057.28 16.108C1056.71 16.108 1056.22 15.984 1055.81 15.736C1055.39 15.488 1055.07 15.14 1054.83 14.692C1054.61 14.236 1054.5 13.7 1054.5 13.084C1054.5 12.468 1054.61 11.936 1054.83 11.488C1055.07 11.032 1055.39 10.68 1055.81 10.432C1056.22 10.184 1056.71 10.06 1057.28 10.06C1057.85 10.06 1058.34 10.184 1058.76 10.432C1059.17 10.68 1059.49 11.032 1059.72 11.488C1059.95 11.936 1060.07 12.468 1060.07 13.084C1060.07 13.7 1059.95 14.236 1059.72 14.692C1059.49 15.14 1059.17 15.488 1058.76 15.736C1058.34 15.984 1057.85 16.108 1057.28 16.108ZM1057.28 15.328C1057.83 15.328 1058.27 15.136 1058.59 14.752C1058.92 14.36 1059.08 13.8 1059.08 13.072C1059.08 12.352 1058.92 11.8 1058.59 11.416C1058.27 11.032 1057.83 10.84 1057.28 10.84C1056.74 10.84 1056.3 11.032 1055.97 11.416C1055.65 11.8 1055.48 12.352 1055.48 13.072C1055.48 13.8 1055.65 14.36 1055.97 14.752C1056.3 15.136 1056.74 15.328 1057.28 15.328ZM1063.31 16.108C1062.72 16.108 1062.27 15.932 1061.97 15.58C1061.67 15.228 1061.53 14.724 1061.53 14.068V7.54H1062.5V13.996C1062.5 14.276 1062.53 14.512 1062.61 14.704C1062.69 14.896 1062.8 15.04 1062.95 15.136C1063.11 15.232 1063.29 15.28 1063.52 15.28C1063.61 15.28 1063.71 15.276 1063.79 15.268C1063.89 15.252 1063.98 15.232 1064.06 15.208L1064.03 16.024C1063.91 16.048 1063.78 16.068 1063.66 16.084C1063.55 16.1 1063.43 16.108 1063.31 16.108ZM1066.66 16L1064.16 10.168H1065.21L1067.3 15.28H1066.98L1069.1 10.168H1070.1L1067.58 16H1066.66ZM1071 8.716V7.624H1072.2V8.716H1071ZM1071.12 16V10.168H1072.1V16H1071.12ZM1076.13 16.108C1075.61 16.108 1075.16 15.984 1074.76 15.736C1074.38 15.488 1074.08 15.14 1073.86 14.692C1073.66 14.236 1073.55 13.7 1073.55 13.084C1073.55 12.46 1073.66 11.924 1073.86 11.476C1074.08 11.02 1074.38 10.672 1074.76 10.432C1075.16 10.184 1075.61 10.06 1076.13 10.06C1076.66 10.06 1077.11 10.192 1077.49 10.456C1077.86 10.72 1078.12 11.076 1078.24 11.524H1078.11V7.54H1079.08V16H1078.14V14.608H1078.26C1078.13 15.064 1077.87 15.428 1077.49 15.7C1077.11 15.972 1076.66 16.108 1076.13 16.108ZM1076.34 15.328C1076.89 15.328 1077.32 15.136 1077.64 14.752C1077.97 14.36 1078.14 13.804 1078.14 13.084C1078.14 12.356 1077.97 11.8 1077.64 11.416C1077.32 11.032 1076.89 10.84 1076.34 10.84C1075.79 10.84 1075.36 11.032 1075.03 11.416C1074.7 11.8 1074.54 12.356 1074.54 13.084C1074.54 13.804 1074.7 14.36 1075.03 14.752C1075.36 15.136 1075.79 15.328 1076.34 15.328ZM1083.33 16.108C1082.76 16.108 1082.27 15.984 1081.86 15.736C1081.44 15.488 1081.12 15.14 1080.88 14.692C1080.66 14.236 1080.55 13.7 1080.55 13.084C1080.55 12.468 1080.66 11.936 1080.88 11.488C1081.12 11.032 1081.44 10.68 1081.86 10.432C1082.27 10.184 1082.76 10.06 1083.33 10.06C1083.9 10.06 1084.39 10.184 1084.81 10.432C1085.22 10.68 1085.54 11.032 1085.77 11.488C1086 11.936 1086.12 12.468 1086.12 13.084C1086.12 13.7 1086 14.236 1085.77 14.692C1085.54 15.14 1085.22 15.488 1084.81 15.736C1084.39 15.984 1083.9 16.108 1083.33 16.108ZM1083.33 15.328C1083.88 15.328 1084.32 15.136 1084.64 14.752C1084.97 14.36 1085.13 13.8 1085.13 13.072C1085.13 12.352 1084.97 11.8 1084.64 11.416C1084.32 11.032 1083.88 10.84 1083.33 10.84C1082.79 10.84 1082.35 11.032 1082.02 11.416C1081.7 11.8 1081.53 12.352 1081.53 13.072C1081.53 13.8 1081.7 14.36 1082.02 14.752C1082.35 15.136 1082.79 15.328 1083.33 15.328ZM1090.66 18.16V10.168H1091.61V11.548H1091.49C1091.61 11.092 1091.87 10.732 1092.24 10.468C1092.63 10.196 1093.08 10.06 1093.61 10.06C1094.13 10.06 1094.58 10.184 1094.97 10.432C1095.36 10.672 1095.66 11.02 1095.87 11.476C1096.08 11.924 1096.19 12.46 1096.19 13.084C1096.19 13.7 1096.08 14.236 1095.87 14.692C1095.66 15.14 1095.36 15.488 1094.98 15.736C1094.59 15.984 1094.14 16.108 1093.61 16.108C1093.08 16.108 1092.63 15.976 1092.25 15.712C1091.88 15.44 1091.62 15.08 1091.49 14.632H1091.63V18.16H1090.66ZM1093.41 15.328C1093.96 15.328 1094.39 15.136 1094.71 14.752C1095.04 14.36 1095.21 13.804 1095.21 13.084C1095.21 12.356 1095.04 11.8 1094.71 11.416C1094.39 11.032 1093.96 10.84 1093.41 10.84C1092.86 10.84 1092.43 11.032 1092.1 11.416C1091.77 11.8 1091.61 12.356 1091.61 13.084C1091.61 13.804 1091.77 14.36 1092.1 14.752C1092.43 15.136 1092.86 15.328 1093.41 15.328ZM1100.08 16.108C1099.51 16.108 1099.02 15.984 1098.6 15.736C1098.19 15.488 1097.86 15.14 1097.63 14.692C1097.41 14.236 1097.29 13.7 1097.29 13.084C1097.29 12.468 1097.41 11.936 1097.63 11.488C1097.86 11.032 1098.19 10.68 1098.6 10.432C1099.02 10.184 1099.51 10.06 1100.08 10.06C1100.65 10.06 1101.14 10.184 1101.55 10.432C1101.97 10.68 1102.29 11.032 1102.51 11.488C1102.75 11.936 1102.86 12.468 1102.86 13.084C1102.86 13.7 1102.75 14.236 1102.51 14.692C1102.29 15.14 1101.97 15.488 1101.55 15.736C1101.14 15.984 1100.65 16.108 1100.08 16.108ZM1100.08 15.328C1100.63 15.328 1101.07 15.136 1101.39 14.752C1101.71 14.36 1101.88 13.8 1101.88 13.072C1101.88 12.352 1101.71 11.8 1101.39 11.416C1101.07 11.032 1100.63 10.84 1100.08 10.84C1099.53 10.84 1099.1 11.032 1098.77 11.416C1098.44 11.8 1098.28 12.352 1098.28 13.072C1098.28 13.8 1098.44 14.36 1098.77 14.752C1099.1 15.136 1099.53 15.328 1100.08 15.328ZM1104.32 16V10.168H1105.27V11.548H1105.15C1105.29 11.076 1105.52 10.72 1105.86 10.48C1106.19 10.232 1106.64 10.088 1107.19 10.048L1107.54 10.012L1107.61 10.852L1107 10.924C1106.45 10.972 1106.03 11.148 1105.74 11.452C1105.45 11.748 1105.31 12.156 1105.31 12.676V16H1104.32ZM1111.02 16L1114.75 7.54H1115.59L1119.33 16H1118.31L1117.26 13.588L1117.74 13.84H1112.58L1113.07 13.588L1112.04 16H1111.02ZM1115.16 8.692L1113.23 13.24L1112.94 13.012H1117.38L1117.12 13.24L1115.19 8.692H1115.16ZM1120.2 16V15.352L1123.71 10.672V10.924H1120.2V10.168H1124.61V10.816L1121.06 15.52V15.244H1124.74V16H1120.2ZM1127.78 16.108C1127.38 16.108 1127.02 16.032 1126.7 15.88C1126.39 15.72 1126.14 15.504 1125.96 15.232C1125.77 14.96 1125.68 14.656 1125.68 14.32C1125.68 13.888 1125.79 13.548 1126 13.3C1126.23 13.052 1126.59 12.876 1127.1 12.772C1127.61 12.668 1128.3 12.616 1129.18 12.616H1129.72V13.252H1129.2C1128.71 13.252 1128.3 13.268 1127.97 13.3C1127.64 13.332 1127.38 13.388 1127.19 13.468C1127 13.548 1126.86 13.652 1126.78 13.78C1126.7 13.908 1126.66 14.068 1126.66 14.26C1126.66 14.588 1126.78 14.856 1127 15.064C1127.23 15.272 1127.54 15.376 1127.94 15.376C1128.26 15.376 1128.54 15.3 1128.78 15.148C1129.02 14.996 1129.22 14.788 1129.35 14.524C1129.5 14.26 1129.57 13.956 1129.57 13.612V12.244C1129.57 11.748 1129.47 11.392 1129.27 11.176C1129.07 10.952 1128.74 10.84 1128.28 10.84C1127.93 10.84 1127.59 10.892 1127.26 10.996C1126.94 11.092 1126.6 11.252 1126.26 11.476L1125.92 10.768C1126.13 10.624 1126.36 10.5 1126.63 10.396C1126.89 10.284 1127.17 10.2 1127.46 10.144C1127.74 10.088 1128.02 10.06 1128.28 10.06C1128.79 10.06 1129.2 10.144 1129.53 10.312C1129.86 10.472 1130.1 10.72 1130.26 11.056C1130.42 11.384 1130.5 11.808 1130.5 12.328V16H1129.59V14.644H1129.7C1129.64 14.948 1129.51 15.208 1129.33 15.424C1129.15 15.64 1128.93 15.808 1128.67 15.928C1128.4 16.048 1128.11 16.108 1127.78 16.108ZM1132.31 18.16V10.168H1133.25V11.548H1133.13C1133.26 11.092 1133.51 10.732 1133.89 10.468C1134.27 10.196 1134.73 10.06 1135.26 10.06C1135.78 10.06 1136.23 10.184 1136.61 10.432C1137.01 10.672 1137.31 11.02 1137.51 11.476C1137.73 11.924 1137.84 12.46 1137.84 13.084C1137.84 13.7 1137.73 14.236 1137.51 14.692C1137.31 15.14 1137.01 15.488 1136.63 15.736C1136.24 15.984 1135.79 16.108 1135.26 16.108C1134.73 16.108 1134.28 15.976 1133.9 15.712C1133.53 15.44 1133.27 15.08 1133.13 14.632H1133.28V18.16H1132.31ZM1135.05 15.328C1135.61 15.328 1136.04 15.136 1136.36 14.752C1136.69 14.36 1136.85 13.804 1136.85 13.084C1136.85 12.356 1136.69 11.8 1136.36 11.416C1136.04 11.032 1135.61 10.84 1135.05 10.84C1134.51 10.84 1134.07 11.032 1133.75 11.416C1133.42 11.8 1133.25 12.356 1133.25 13.084C1133.25 13.804 1133.42 14.36 1133.75 14.752C1134.07 15.136 1134.51 15.328 1135.05 15.328ZM1141.93 16.108C1141.32 16.108 1140.78 15.988 1140.34 15.748C1139.9 15.5 1139.55 15.152 1139.3 14.704C1139.06 14.256 1138.94 13.72 1138.94 13.096C1138.94 12.488 1139.06 11.96 1139.3 11.512C1139.54 11.056 1139.87 10.7 1140.29 10.444C1140.71 10.188 1141.2 10.06 1141.75 10.06C1142.28 10.06 1142.73 10.176 1143.11 10.408C1143.48 10.64 1143.77 10.968 1143.97 11.392C1144.18 11.816 1144.28 12.324 1144.28 12.916V13.288H1139.69V12.652H1143.64L1143.44 12.808C1143.44 12.168 1143.3 11.672 1143.01 11.32C1142.73 10.96 1142.32 10.78 1141.78 10.78C1141.37 10.78 1141.02 10.876 1140.73 11.068C1140.45 11.252 1140.24 11.512 1140.1 11.848C1139.95 12.176 1139.88 12.56 1139.88 13V13.072C1139.88 13.56 1139.96 13.972 1140.11 14.308C1140.27 14.644 1140.5 14.9 1140.82 15.076C1141.13 15.244 1141.5 15.328 1141.93 15.328C1142.28 15.328 1142.61 15.276 1142.93 15.172C1143.26 15.06 1143.56 14.88 1143.85 14.632L1144.19 15.316C1143.92 15.556 1143.59 15.748 1143.18 15.892C1142.77 16.036 1142.36 16.108 1141.93 16.108Z" fill="#97A1A8"/>
<path d="M963.754 13.5027C962.795 12.7357 961.575 12.293 960.208 12.293C956.661 12.293 954.125 14.7744 954.125 18.2611C954.125 21.7599 956.661 24.2713 960.208 24.2713C961.555 24.2713 962.757 23.8419 963.706 23.0966V23.8905H967.141V12.6325H963.765L963.754 13.5027ZM960.743 20.8378C959.247 20.8378 958.146 19.7403 958.146 18.2705C958.146 16.8093 959.238 15.7118 960.743 15.7118C962.24 15.7118 963.341 16.8093 963.341 18.2705C963.34 19.7403 962.24 20.8378 960.743 20.8378H960.743Z" fill="#97A1A8"/>
<path d="M978.813 13.2766V12.644H968.774V16.0674H973.285L968.84 23.3267V23.9021H978.858V20.4546H974.431L978.813 13.2766Z" fill="#97A1A8"/>
<path d="M971.903 0H970.88L971.933 1.08297C966.931 5.33441 959.752 5.91624 954.125 2.82203C954.818 3.98402 955.666 5.05132 956.649 5.99574C962.461 11.5879 971.676 11.8198 977.724 6.70069L978.802 7.6887V6.63952L978.805 6.64241V0H971.903Z" fill="#97A1A8"/>
<path d="M118.358 16V7.54H121.706C122.314 7.54 122.826 7.64 123.242 7.84C123.666 8.032 123.986 8.32 124.202 8.704C124.418 9.08 124.526 9.54 124.526 10.084C124.526 10.612 124.418 11.068 124.202 11.452C123.986 11.836 123.666 12.128 123.242 12.328C122.826 12.528 122.314 12.628 121.706 12.628H119.342V16H118.358ZM119.342 11.8H121.586C122.234 11.8 122.722 11.656 123.05 11.368C123.386 11.072 123.554 10.644 123.554 10.084C123.554 9.516 123.386 9.088 123.05 8.8C122.722 8.504 122.234 8.356 121.586 8.356H119.342V11.8ZM127.986 16.108C127.418 16.108 126.926 15.984 126.51 15.736C126.094 15.488 125.77 15.14 125.538 14.692C125.314 14.236 125.202 13.7 125.202 13.084C125.202 12.468 125.314 11.936 125.538 11.488C125.77 11.032 126.094 10.68 126.51 10.432C126.926 10.184 127.418 10.06 127.986 10.06C128.554 10.06 129.046 10.184 129.462 10.432C129.878 10.68 130.198 11.032 130.422 11.488C130.654 11.936 130.77 12.468 130.77 13.084C130.77 13.7 130.654 14.236 130.422 14.692C130.198 15.14 129.878 15.488 129.462 15.736C129.046 15.984 128.554 16.108 127.986 16.108ZM127.986 15.328C128.538 15.328 128.974 15.136 129.294 14.752C129.622 14.36 129.786 13.8 129.786 13.072C129.786 12.352 129.622 11.8 129.294 11.416C128.974 11.032 128.538 10.84 127.986 10.84C127.442 10.84 127.006 11.032 126.678 11.416C126.35 11.8 126.186 12.352 126.186 13.072C126.186 13.8 126.35 14.36 126.678 14.752C127.006 15.136 127.442 15.328 127.986 15.328ZM134.018 16.108C133.426 16.108 132.978 15.932 132.674 15.58C132.378 15.228 132.23 14.724 132.23 14.068V7.54H133.202V13.996C133.202 14.276 133.238 14.512 133.31 14.704C133.39 14.896 133.506 15.04 133.658 15.136C133.81 15.232 133.998 15.28 134.222 15.28C134.318 15.28 134.41 15.276 134.498 15.268C134.594 15.252 134.682 15.232 134.762 15.208L134.738 16.024C134.61 16.048 134.486 16.068 134.366 16.084C134.254 16.1 134.138 16.108 134.018 16.108ZM135.781 16V10.168H136.753V16H135.781ZM135.913 9.388L137.149 6.964H138.193L136.609 9.388H135.913ZM140.91 16.108C140.222 16.108 139.706 15.924 139.362 15.556C139.018 15.188 138.846 14.664 138.846 13.984V10.924H137.706V10.168H138.846V8.38H139.818V10.168H141.666V10.924H139.818V13.888C139.818 14.344 139.914 14.692 140.106 14.932C140.298 15.164 140.61 15.28 141.042 15.28C141.17 15.28 141.298 15.264 141.426 15.232C141.554 15.2 141.67 15.168 141.774 15.136L141.942 15.88C141.838 15.936 141.686 15.988 141.486 16.036C141.286 16.084 141.094 16.108 140.91 16.108ZM142.645 8.716V7.624H143.845V8.716H142.645ZM142.765 16V10.168H143.737V16H142.765ZM148.026 16.108C147.442 16.108 146.938 15.98 146.514 15.724C146.09 15.468 145.762 15.112 145.53 14.656C145.306 14.192 145.194 13.656 145.194 13.048C145.194 12.432 145.306 11.9 145.53 11.452C145.762 11.004 146.09 10.66 146.514 10.42C146.938 10.18 147.442 10.06 148.026 10.06C148.386 10.06 148.742 10.124 149.094 10.252C149.446 10.38 149.738 10.56 149.97 10.792L149.634 11.5C149.402 11.276 149.146 11.112 148.866 11.008C148.594 10.904 148.334 10.852 148.086 10.852C147.478 10.852 147.01 11.044 146.682 11.428C146.354 11.804 146.19 12.348 146.19 13.06C146.19 13.756 146.354 14.308 146.682 14.716C147.01 15.116 147.478 15.316 148.086 15.316C148.334 15.316 148.594 15.264 148.866 15.16C149.146 15.056 149.402 14.888 149.634 14.656L149.97 15.364C149.738 15.596 149.442 15.78 149.082 15.916C148.73 16.044 148.378 16.108 148.026 16.108ZM152.898 16.108C152.498 16.108 152.138 16.032 151.818 15.88C151.506 15.72 151.258 15.504 151.074 15.232C150.89 14.96 150.798 14.656 150.798 14.32C150.798 13.888 150.906 13.548 151.122 13.3C151.346 13.052 151.71 12.876 152.214 12.772C152.726 12.668 153.422 12.616 154.302 12.616H154.842V13.252H154.314C153.826 13.252 153.418 13.268 153.09 13.3C152.762 13.332 152.502 13.388 152.31 13.468C152.118 13.548 151.982 13.652 151.902 13.78C151.822 13.908 151.782 14.068 151.782 14.26C151.782 14.588 151.894 14.856 152.118 15.064C152.35 15.272 152.662 15.376 153.054 15.376C153.374 15.376 153.654 15.3 153.894 15.148C154.142 14.996 154.334 14.788 154.47 14.524C154.614 14.26 154.686 13.956 154.686 13.612V12.244C154.686 11.748 154.586 11.392 154.386 11.176C154.186 10.952 153.858 10.84 153.402 10.84C153.05 10.84 152.71 10.892 152.382 10.996C152.054 11.092 151.718 11.252 151.374 11.476L151.038 10.768C151.246 10.624 151.482 10.5 151.746 10.396C152.01 10.284 152.286 10.2 152.574 10.144C152.862 10.088 153.138 10.06 153.402 10.06C153.906 10.06 154.322 10.144 154.65 10.312C154.978 10.472 155.222 10.72 155.382 11.056C155.542 11.384 155.622 11.808 155.622 12.328V16H154.71V14.644H154.818C154.754 14.948 154.63 15.208 154.446 15.424C154.27 15.64 154.05 15.808 153.786 15.928C153.522 16.048 153.226 16.108 152.898 16.108ZM162.727 16.108C162.207 16.108 161.751 15.984 161.359 15.736C160.975 15.488 160.675 15.14 160.459 14.692C160.251 14.236 160.147 13.7 160.147 13.084C160.147 12.46 160.251 11.924 160.459 11.476C160.675 11.02 160.975 10.672 161.359 10.432C161.751 10.184 162.207 10.06 162.727 10.06C163.255 10.06 163.707 10.192 164.083 10.456C164.459 10.72 164.711 11.076 164.839 11.524H164.707V7.54H165.679V16H164.731V14.608H164.851C164.723 15.064 164.467 15.428 164.083 15.7C163.707 15.972 163.255 16.108 162.727 16.108ZM162.931 15.328C163.483 15.328 163.919 15.136 164.239 14.752C164.567 14.36 164.731 13.804 164.731 13.084C164.731 12.356 164.567 11.8 164.239 11.416C163.919 11.032 163.483 10.84 162.931 10.84C162.387 10.84 161.951 11.032 161.623 11.416C161.295 11.8 161.131 12.356 161.131 13.084C161.131 13.804 161.295 14.36 161.623 14.752C161.951 15.136 162.387 15.328 162.931 15.328ZM170.131 16.108C169.515 16.108 168.983 15.988 168.535 15.748C168.095 15.5 167.751 15.152 167.503 14.704C167.263 14.256 167.143 13.72 167.143 13.096C167.143 12.488 167.263 11.96 167.503 11.512C167.743 11.056 168.071 10.7 168.487 10.444C168.911 10.188 169.399 10.06 169.951 10.06C170.479 10.06 170.931 10.176 171.307 10.408C171.683 10.64 171.971 10.968 172.171 11.392C172.379 11.816 172.483 12.324 172.483 12.916V13.288H167.887V12.652H171.835L171.643 12.808C171.643 12.168 171.499 11.672 171.211 11.32C170.931 10.96 170.519 10.78 169.975 10.78C169.567 10.78 169.219 10.876 168.931 11.068C168.651 11.252 168.439 11.512 168.295 11.848C168.151 12.176 168.079 12.56 168.079 13V13.072C168.079 13.56 168.155 13.972 168.307 14.308C168.467 14.644 168.703 14.9 169.015 15.076C169.327 15.244 169.699 15.328 170.131 15.328C170.475 15.328 170.807 15.276 171.127 15.172C171.455 15.06 171.763 14.88 172.051 14.632L172.387 15.316C172.123 15.556 171.787 15.748 171.379 15.892C170.971 16.036 170.555 16.108 170.131 16.108ZM177.104 16V7.54H180.452C181.06 7.54 181.572 7.64 181.988 7.84C182.412 8.032 182.732 8.32 182.948 8.704C183.164 9.08 183.272 9.54 183.272 10.084C183.272 10.612 183.164 11.068 182.948 11.452C182.732 11.836 182.412 12.128 181.988 12.328C181.572 12.528 181.06 12.628 180.452 12.628H178.088V16H177.104ZM178.088 11.8H180.332C180.98 11.8 181.468 11.656 181.796 11.368C182.132 11.072 182.3 10.644 182.3 10.084C182.3 9.516 182.132 9.088 181.796 8.8C181.468 8.504 180.98 8.356 180.332 8.356H178.088V11.8ZM184.448 16V10.168H185.396V11.548H185.276C185.412 11.076 185.648 10.72 185.984 10.48C186.32 10.232 186.764 10.088 187.316 10.048L187.664 10.012L187.736 10.852L187.124 10.924C186.58 10.972 186.16 11.148 185.864 11.452C185.576 11.748 185.432 12.156 185.432 12.676V16H184.448ZM188.629 8.716V7.624H189.829V8.716H188.629ZM188.749 16V10.168H189.721V16H188.749ZM193.254 16L190.746 10.168H191.802L193.89 15.28H193.566L195.69 10.168H196.686L194.166 16H193.254ZM199.433 16.108C199.033 16.108 198.673 16.032 198.353 15.88C198.041 15.72 197.793 15.504 197.609 15.232C197.425 14.96 197.333 14.656 197.333 14.32C197.333 13.888 197.441 13.548 197.657 13.3C197.881 13.052 198.245 12.876 198.749 12.772C199.261 12.668 199.957 12.616 200.837 12.616H201.377V13.252H200.849C200.361 13.252 199.953 13.268 199.625 13.3C199.297 13.332 199.037 13.388 198.845 13.468C198.653 13.548 198.517 13.652 198.437 13.78C198.357 13.908 198.317 14.068 198.317 14.26C198.317 14.588 198.429 14.856 198.653 15.064C198.885 15.272 199.197 15.376 199.589 15.376C199.909 15.376 200.189 15.3 200.429 15.148C200.677 14.996 200.869 14.788 201.005 14.524C201.149 14.26 201.221 13.956 201.221 13.612V12.244C201.221 11.748 201.121 11.392 200.921 11.176C200.721 10.952 200.393 10.84 199.937 10.84C199.585 10.84 199.245 10.892 198.917 10.996C198.589 11.092 198.253 11.252 197.909 11.476L197.573 10.768C197.781 10.624 198.017 10.5 198.281 10.396C198.545 10.284 198.821 10.2 199.109 10.144C199.397 10.088 199.673 10.06 199.937 10.06C200.441 10.06 200.857 10.144 201.185 10.312C201.513 10.472 201.757 10.72 201.917 11.056C202.077 11.384 202.157 11.808 202.157 12.328V16H201.245V14.644H201.353C201.289 14.948 201.165 15.208 200.981 15.424C200.805 15.64 200.585 15.808 200.321 15.928C200.057 16.048 199.761 16.108 199.433 16.108ZM206.432 16.108C205.848 16.108 205.344 15.98 204.92 15.724C204.496 15.468 204.168 15.112 203.936 14.656C203.712 14.192 203.6 13.656 203.6 13.048C203.6 12.432 203.712 11.9 203.936 11.452C204.168 11.004 204.496 10.66 204.92 10.42C205.344 10.18 205.848 10.06 206.432 10.06C206.792 10.06 207.148 10.124 207.5 10.252C207.852 10.38 208.144 10.56 208.376 10.792L208.04 11.5C207.808 11.276 207.552 11.112 207.272 11.008C207 10.904 206.74 10.852 206.492 10.852C205.884 10.852 205.416 11.044 205.088 11.428C204.76 11.804 204.596 12.348 204.596 13.06C204.596 13.756 204.76 14.308 205.088 14.716C205.416 15.116 205.884 15.316 206.492 15.316C206.74 15.316 207 15.264 207.272 15.16C207.552 15.056 207.808 14.888 208.04 14.656L208.376 15.364C208.144 15.596 207.848 15.78 207.488 15.916C207.136 16.044 206.784 16.108 206.432 16.108ZM209.395 8.716V7.624H210.595V8.716H209.395ZM209.515 16V10.168H210.487V16H209.515ZM214.524 16.108C214.004 16.108 213.548 15.984 213.156 15.736C212.772 15.488 212.472 15.14 212.256 14.692C212.048 14.236 211.944 13.7 211.944 13.084C211.944 12.46 212.048 11.924 212.256 11.476C212.472 11.02 212.772 10.672 213.156 10.432C213.548 10.184 214.004 10.06 214.524 10.06C215.052 10.06 215.504 10.192 215.88 10.456C216.256 10.72 216.508 11.076 216.636 11.524H216.504V7.54H217.476V16H216.528V14.608H216.648C216.52 15.064 216.264 15.428 215.88 15.7C215.504 15.972 215.052 16.108 214.524 16.108ZM214.728 15.328C215.28 15.328 215.716 15.136 216.036 14.752C216.364 14.36 216.528 13.804 216.528 13.084C216.528 12.356 216.364 11.8 216.036 11.416C215.716 11.032 215.28 10.84 214.728 10.84C214.184 10.84 213.748 11.032 213.42 11.416C213.092 11.8 212.928 12.356 212.928 13.084C212.928 13.804 213.092 14.36 213.42 14.752C213.748 15.136 214.184 15.328 214.728 15.328ZM221.136 16.108C220.736 16.108 220.376 16.032 220.056 15.88C219.744 15.72 219.496 15.504 219.312 15.232C219.128 14.96 219.036 14.656 219.036 14.32C219.036 13.888 219.144 13.548 219.36 13.3C219.584 13.052 219.948 12.876 220.452 12.772C220.964 12.668 221.66 12.616 222.54 12.616H223.08V13.252H222.552C222.064 13.252 221.656 13.268 221.328 13.3C221 13.332 220.74 13.388 220.548 13.468C220.356 13.548 220.22 13.652 220.14 13.78C220.06 13.908 220.02 14.068 220.02 14.26C220.02 14.588 220.132 14.856 220.356 15.064C220.588 15.272 220.9 15.376 221.292 15.376C221.612 15.376 221.892 15.3 222.132 15.148C222.38 14.996 222.572 14.788 222.708 14.524C222.852 14.26 222.924 13.956 222.924 13.612V12.244C222.924 11.748 222.824 11.392 222.624 11.176C222.424 10.952 222.096 10.84 221.64 10.84C221.288 10.84 220.948 10.892 220.62 10.996C220.292 11.092 219.956 11.252 219.612 11.476L219.276 10.768C219.484 10.624 219.72 10.5 219.984 10.396C220.248 10.284 220.524 10.2 220.812 10.144C221.1 10.088 221.376 10.06 221.64 10.06C222.144 10.06 222.56 10.144 222.888 10.312C223.216 10.472 223.46 10.72 223.62 11.056C223.78 11.384 223.86 11.808 223.86 12.328V16H222.948V14.644H223.056C222.992 14.948 222.868 15.208 222.684 15.424C222.508 15.64 222.288 15.808 222.024 15.928C221.76 16.048 221.464 16.108 221.136 16.108ZM227.883 16.108C227.363 16.108 226.907 15.984 226.515 15.736C226.131 15.488 225.831 15.14 225.615 14.692C225.407 14.236 225.303 13.7 225.303 13.084C225.303 12.46 225.407 11.924 225.615 11.476C225.831 11.02 226.131 10.672 226.515 10.432C226.907 10.184 227.363 10.06 227.883 10.06C228.411 10.06 228.863 10.192 229.239 10.456C229.615 10.72 229.867 11.076 229.995 11.524H229.863V7.54H230.835V16H229.887V14.608H230.007C229.879 15.064 229.623 15.428 229.239 15.7C228.863 15.972 228.411 16.108 227.883 16.108ZM228.087 15.328C228.639 15.328 229.075 15.136 229.395 14.752C229.723 14.36 229.887 13.804 229.887 13.084C229.887 12.356 229.723 11.8 229.395 11.416C229.075 11.032 228.639 10.84 228.087 10.84C227.543 10.84 227.107 11.032 226.779 11.416C226.451 11.8 226.287 12.356 226.287 13.084C226.287 13.804 226.451 14.36 226.779 14.752C227.107 15.136 227.543 15.328 228.087 15.328ZM235.287 16.108C234.671 16.108 234.139 15.988 233.691 15.748C233.251 15.5 232.907 15.152 232.659 14.704C232.419 14.256 232.299 13.72 232.299 13.096C232.299 12.488 232.419 11.96 232.659 11.512C232.899 11.056 233.227 10.7 233.643 10.444C234.067 10.188 234.555 10.06 235.107 10.06C235.635 10.06 236.087 10.176 236.463 10.408C236.839 10.64 237.127 10.968 237.327 11.392C237.535 11.816 237.639 12.324 237.639 12.916V13.288H233.043V12.652H236.991L236.799 12.808C236.799 12.168 236.655 11.672 236.367 11.32C236.087 10.96 235.675 10.78 235.131 10.78C234.723 10.78 234.375 10.876 234.087 11.068C233.807 11.252 233.595 11.512 233.451 11.848C233.307 12.176 233.235 12.56 233.235 13V13.072C233.235 13.56 233.311 13.972 233.463 14.308C233.623 14.644 233.859 14.9 234.171 15.076C234.483 15.244 234.855 15.328 235.287 15.328C235.631 15.328 235.963 15.276 236.283 15.172C236.611 15.06 236.919 14.88 237.207 14.632L237.543 15.316C237.279 15.556 236.943 15.748 236.535 15.892C236.127 16.036 235.711 16.108 235.287 16.108Z" fill="#97A1A8"/>
<path d="M117.314 17.2H238.131V17.632H117.314V17.2Z" fill="#97A1A8"/>
<path d="M3.98108 16V8.392H0.909084V7.54H8.04908V8.392H4.97708V16H3.98108ZM10.7058 16.108C10.0898 16.108 9.55777 15.988 9.10977 15.748C8.66977 15.5 8.32577 15.152 8.07777 14.704C7.83777 14.256 7.71777 13.72 7.71777 13.096C7.71777 12.488 7.83777 11.96 8.07777 11.512C8.31777 11.056 8.64577 10.7 9.06177 10.444C9.48577 10.188 9.97377 10.06 10.5258 10.06C11.0538 10.06 11.5058 10.176 11.8818 10.408C12.2578 10.64 12.5458 10.968 12.7458 11.392C12.9538 11.816 13.0578 12.324 13.0578 12.916V13.288H8.46177V12.652H12.4098L12.2178 12.808C12.2178 12.168 12.0738 11.672 11.7858 11.32C11.5058 10.96 11.0938 10.78 10.5498 10.78C10.1418 10.78 9.79377 10.876 9.50577 11.068C9.22577 11.252 9.01377 11.512 8.86977 11.848C8.72577 12.176 8.65377 12.56 8.65377 13V13.072C8.65377 13.56 8.72977 13.972 8.88177 14.308C9.04177 14.644 9.27777 14.9 9.58977 15.076C9.90177 15.244 10.2738 15.328 10.7058 15.328C11.0498 15.328 11.3818 15.276 11.7018 15.172C12.0298 15.06 12.3378 14.88 12.6258 14.632L12.9618 15.316C12.6978 15.556 12.3618 15.748 11.9538 15.892C11.5458 16.036 11.1298 16.108 10.7058 16.108ZM14.4645 16V10.168H15.4125V11.548H15.2925C15.4285 11.076 15.6645 10.72 16.0005 10.48C16.3365 10.232 16.7805 10.088 17.3325 10.048L17.6805 10.012L17.7525 10.852L17.1405 10.924C16.5965 10.972 16.1765 11.148 15.8805 11.452C15.5925 11.748 15.4485 12.156 15.4485 12.676V16H14.4645ZM18.7893 16V10.168H19.7373V11.464H19.6053C19.7013 11.168 19.8413 10.916 20.0253 10.708C20.2173 10.492 20.4413 10.332 20.6973 10.228C20.9613 10.116 21.2493 10.06 21.5613 10.06C22.0573 10.06 22.4573 10.18 22.7613 10.42C23.0733 10.652 23.2813 11.016 23.3853 11.512H23.2053C23.3493 11.064 23.6053 10.712 23.9733 10.456C24.3493 10.192 24.7853 10.06 25.2813 10.06C25.7213 10.06 26.0813 10.144 26.3613 10.312C26.6493 10.48 26.8653 10.736 27.0093 11.08C27.1533 11.416 27.2253 11.844 27.2253 12.364V16H26.2533V12.412C26.2533 11.876 26.1613 11.484 25.9773 11.236C25.7933 10.98 25.4813 10.852 25.0413 10.852C24.7293 10.852 24.4533 10.928 24.2133 11.08C23.9813 11.232 23.8013 11.448 23.6733 11.728C23.5533 12 23.4933 12.324 23.4933 12.7V16H22.5213V12.412C22.5213 11.876 22.4253 11.484 22.2333 11.236C22.0493 10.98 21.7413 10.852 21.3093 10.852C20.9893 10.852 20.7133 10.928 20.4813 11.08C20.2493 11.232 20.0693 11.448 19.9413 11.728C19.8213 12 19.7613 12.324 19.7613 12.7V16H18.7893ZM31.4666 16.108C30.8986 16.108 30.4066 15.984 29.9906 15.736C29.5746 15.488 29.2506 15.14 29.0186 14.692C28.7946 14.236 28.6826 13.7 28.6826 13.084C28.6826 12.468 28.7946 11.936 29.0186 11.488C29.2506 11.032 29.5746 10.68 29.9906 10.432C30.4066 10.184 30.8986 10.06 31.4666 10.06C32.0346 10.06 32.5266 10.184 32.9426 10.432C33.3586 10.68 33.6786 11.032 33.9026 11.488C34.1346 11.936 34.2506 12.468 34.2506 13.084C34.2506 13.7 34.1346 14.236 33.9026 14.692C33.6786 15.14 33.3586 15.488 32.9426 15.736C32.5266 15.984 32.0346 16.108 31.4666 16.108ZM31.4666 15.328C32.0186 15.328 32.4546 15.136 32.7746 14.752C33.1026 14.36 33.2666 13.8 33.2666 13.072C33.2666 12.352 33.1026 11.8 32.7746 11.416C32.4546 11.032 32.0186 10.84 31.4666 10.84C30.9226 10.84 30.4866 11.032 30.1586 11.416C29.8306 11.8 29.6666 12.352 29.6666 13.072C29.6666 13.8 29.8306 14.36 30.1586 14.752C30.4866 15.136 30.9226 15.328 31.4666 15.328ZM37.6786 16.108C37.3746 16.108 37.0786 16.076 36.7906 16.012C36.5106 15.956 36.2466 15.876 35.9986 15.772C35.7586 15.66 35.5506 15.528 35.3746 15.376L35.6866 14.692C35.8786 14.844 36.0866 14.972 36.3106 15.076C36.5346 15.172 36.7626 15.244 36.9946 15.292C37.2266 15.34 37.4626 15.364 37.7026 15.364C38.1586 15.364 38.5026 15.28 38.7346 15.112C38.9666 14.944 39.0826 14.716 39.0826 14.428C39.0826 14.204 39.0066 14.028 38.8546 13.9C38.7026 13.764 38.4626 13.66 38.1346 13.588L37.0426 13.348C36.5386 13.244 36.1626 13.064 35.9146 12.808C35.6746 12.552 35.5546 12.22 35.5546 11.812C35.5546 11.452 35.6466 11.144 35.8306 10.888C36.0226 10.624 36.2906 10.42 36.6346 10.276C36.9786 10.132 37.3786 10.06 37.8346 10.06C38.1066 10.06 38.3666 10.088 38.6146 10.144C38.8626 10.2 39.0946 10.284 39.3106 10.396C39.5346 10.5 39.7266 10.632 39.8866 10.792L39.5626 11.476C39.4106 11.332 39.2386 11.212 39.0466 11.116C38.8546 11.012 38.6546 10.936 38.4466 10.888C38.2466 10.832 38.0426 10.804 37.8346 10.804C37.3866 10.804 37.0466 10.892 36.8146 11.068C36.5826 11.244 36.4666 11.476 36.4666 11.764C36.4666 11.988 36.5386 12.172 36.6826 12.316C36.8266 12.46 37.0506 12.564 37.3546 12.628L38.4466 12.856C38.9666 12.968 39.3546 13.148 39.6106 13.396C39.8746 13.636 40.0066 13.964 40.0066 14.38C40.0066 14.732 39.9106 15.04 39.7186 15.304C39.5266 15.56 39.2546 15.76 38.9026 15.904C38.5586 16.04 38.1506 16.108 37.6786 16.108ZM46.79 16.108C46.27 16.108 45.814 15.984 45.422 15.736C45.038 15.488 44.738 15.14 44.522 14.692C44.314 14.236 44.21 13.7 44.21 13.084C44.21 12.46 44.314 11.924 44.522 11.476C44.738 11.02 45.038 10.672 45.422 10.432C45.814 10.184 46.27 10.06 46.79 10.06C47.318 10.06 47.77 10.192 48.146 10.456C48.522 10.72 48.774 11.076 48.902 11.524H48.77V7.54H49.742V16H48.794V14.608H48.914C48.786 15.064 48.53 15.428 48.146 15.7C47.77 15.972 47.318 16.108 46.79 16.108ZM46.994 15.328C47.546 15.328 47.982 15.136 48.302 14.752C48.63 14.36 48.794 13.804 48.794 13.084C48.794 12.356 48.63 11.8 48.302 11.416C47.982 11.032 47.546 10.84 46.994 10.84C46.45 10.84 46.014 11.032 45.686 11.416C45.358 11.8 45.194 12.356 45.194 13.084C45.194 13.804 45.358 14.36 45.686 14.752C46.014 15.136 46.45 15.328 46.994 15.328ZM54.1941 16.108C53.5781 16.108 53.0461 15.988 52.5981 15.748C52.1581 15.5 51.8141 15.152 51.5661 14.704C51.3261 14.256 51.2061 13.72 51.2061 13.096C51.2061 12.488 51.3261 11.96 51.5661 11.512C51.8061 11.056 52.1341 10.7 52.5501 10.444C52.9741 10.188 53.4621 10.06 54.0141 10.06C54.5421 10.06 54.9941 10.176 55.3701 10.408C55.7461 10.64 56.0341 10.968 56.2341 11.392C56.4421 11.816 56.5461 12.324 56.5461 12.916V13.288H51.9501V12.652H55.8981L55.7061 12.808C55.7061 12.168 55.5621 11.672 55.2741 11.32C54.9941 10.96 54.5821 10.78 54.0381 10.78C53.6301 10.78 53.2821 10.876 52.9941 11.068C52.7141 11.252 52.5021 11.512 52.3581 11.848C52.2141 12.176 52.1421 12.56 52.1421 13V13.072C52.1421 13.56 52.2181 13.972 52.3701 14.308C52.5301 14.644 52.7661 14.9 53.0781 15.076C53.3901 15.244 53.7621 15.328 54.1941 15.328C54.5381 15.328 54.8701 15.276 55.1901 15.172C55.5181 15.06 55.8261 14.88 56.1141 14.632L56.4501 15.316C56.1861 15.556 55.8501 15.748 55.4421 15.892C55.0341 16.036 54.6181 16.108 54.1941 16.108ZM64.5028 16.108C63.3988 16.108 62.5548 15.816 61.9708 15.232C61.3948 14.64 61.1068 13.78 61.1068 12.652V7.54H62.0908V12.604C62.0908 13.484 62.2948 14.144 62.7028 14.584C63.1108 15.016 63.7108 15.232 64.5028 15.232C65.2948 15.232 65.8908 15.016 66.2908 14.584C66.6908 14.144 66.8908 13.484 66.8908 12.604V7.54H67.8748V12.652C67.8748 13.78 67.5868 14.64 67.0108 15.232C66.4428 15.816 65.6068 16.108 64.5028 16.108ZM71.7333 16.108C71.4293 16.108 71.1333 16.076 70.8453 16.012C70.5653 15.956 70.3013 15.876 70.0533 15.772C69.8133 15.66 69.6053 15.528 69.4293 15.376L69.7413 14.692C69.9333 14.844 70.1413 14.972 70.3653 15.076C70.5893 15.172 70.8173 15.244 71.0493 15.292C71.2813 15.34 71.5173 15.364 71.7573 15.364C72.2133 15.364 72.5573 15.28 72.7893 15.112C73.0213 14.944 73.1373 14.716 73.1373 14.428C73.1373 14.204 73.0613 14.028 72.9093 13.9C72.7573 13.764 72.5173 13.66 72.1893 13.588L71.0973 13.348C70.5933 13.244 70.2173 13.064 69.9693 12.808C69.7293 12.552 69.6093 12.22 69.6093 11.812C69.6093 11.452 69.7013 11.144 69.8853 10.888C70.0773 10.624 70.3453 10.42 70.6893 10.276C71.0333 10.132 71.4333 10.06 71.8893 10.06C72.1613 10.06 72.4213 10.088 72.6693 10.144C72.9173 10.2 73.1493 10.284 73.3653 10.396C73.5893 10.5 73.7813 10.632 73.9413 10.792L73.6173 11.476C73.4653 11.332 73.2933 11.212 73.1013 11.116C72.9093 11.012 72.7093 10.936 72.5013 10.888C72.3013 10.832 72.0973 10.804 71.8893 10.804C71.4413 10.804 71.1013 10.892 70.8693 11.068C70.6373 11.244 70.5213 11.476 70.5213 11.764C70.5213 11.988 70.5933 12.172 70.7373 12.316C70.8813 12.46 71.1053 12.564 71.4093 12.628L72.5013 12.856C73.0213 12.968 73.4093 13.148 73.6653 13.396C73.9293 13.636 74.0613 13.964 74.0613 14.38C74.0613 14.732 73.9653 15.04 73.7733 15.304C73.5813 15.56 73.3093 15.76 72.9573 15.904C72.6133 16.04 72.2053 16.108 71.7333 16.108ZM77.9666 16.108C77.3986 16.108 76.9066 15.984 76.4906 15.736C76.0746 15.488 75.7506 15.14 75.5186 14.692C75.2946 14.236 75.1826 13.7 75.1826 13.084C75.1826 12.468 75.2946 11.936 75.5186 11.488C75.7506 11.032 76.0746 10.68 76.4906 10.432C76.9066 10.184 77.3986 10.06 77.9666 10.06C78.5346 10.06 79.0266 10.184 79.4426 10.432C79.8586 10.68 80.1786 11.032 80.4026 11.488C80.6346 11.936 80.7506 12.468 80.7506 13.084C80.7506 13.7 80.6346 14.236 80.4026 14.692C80.1786 15.14 79.8586 15.488 79.4426 15.736C79.0266 15.984 78.5346 16.108 77.9666 16.108ZM77.9666 15.328C78.5186 15.328 78.9546 15.136 79.2746 14.752C79.6026 14.36 79.7666 13.8 79.7666 13.072C79.7666 12.352 79.6026 11.8 79.2746 11.416C78.9546 11.032 78.5186 10.84 77.9666 10.84C77.4226 10.84 76.9866 11.032 76.6586 11.416C76.3306 11.8 76.1666 12.352 76.1666 13.072C76.1666 13.8 76.3306 14.36 76.6586 14.752C76.9866 15.136 77.4226 15.328 77.9666 15.328Z" fill="#97A1A8"/>
<path d="M0.861084 17.2H81.3026V17.632H0.861084V17.2Z" fill="#97A1A8"/>
</svg>
